# xmcd
#
# Track frame offsets:
#	150
#	13315
#	27040
#	49390
#	63360
#	77280
#	90437
#	103475
#	120650
#	136520
#	156255
#	168390
#	180877
#	197890
#	214702
#	235662
#	250662
#	262840
#	273105
#	284217
#
# Disc length: 3969
#
# Revision: 3
# Processed by: cddbd v1.5.1PL0 Copyright (c) Steve Scherf et al.
# Submitted via: MusicWizard 7.0.2
# Normalized: r2:TSWAP
#
DISCID=0a0f7f14
DTITLE=Various Artist - Mega Country (6/10)
DYEAR=1997
DGENRE=Country
TTITLE0=Charlie Rich - Most Beautiful Girl In The World
TTITLE1=Tammy Wynette and George Jones - Golden Rings
TTITLE2=Eddie Rabbitt - Suspicions
TTITLE3=Lee Greenwood - Dixie Road
TTITLE4=Johnny Paycheck - Slide Off Of Your Satin Sheets
TTITLE5=Tanya Tucker - The Man That Turned My Mama On
TTITLE6=Freddy Weller - She Loves Me Right Out Of My Mind
TTITLE7=Eddie Raven - Joe Sure Knows How To Live
TTITLE8=Ray Stevens - Everything Is Beautiful
TTITLE9=Becky Hobbs - Angels Among Us
TTITLE10=Hank Thompson - Oklahoma Hills
TTITLE11=Porter Wagoner - A Satisfied Mind
TTITLE12=Alex Harvey - Rings
TTITLE13=Merle Haggard - Today I Started Loving You Again
TTITLE14=Stella Parton - A Woman's Touch
TTITLE15=Johnny Rodriguez - Desperado
TTITLE16=Jerry Wallace - To Get To You
TTITLE17=Billie Jo Spears - I'm Gonna Be A Country Girl Again
TTITLE18=Slim Whitman - The Wayward Wind
TTITLE19=Patti Page - Tennessee Waltz
EXTD=
EXTT0=
EXTT1=
EXTT2=
EXTT3=
EXTT4=
EXTT5=
EXTT6=
EXTT7=
EXTT8=
EXTT9=
EXTT10=
EXTT11=
EXTT12=
EXTT13=
EXTT14=
EXTT15=
EXTT16=
EXTT17=
EXTT18=
EXTT19=
PLAYORDER=
